<svg height="512" viewBox="0 0 512 512" width="512" xmlns="http://www.w3.org/2000/svg"><g><g><path d="m400 32v32h-376v-32c0-8.84 5.609-16 12.533-16h350.934c6.924 0 12.533 7.16 12.533 16z" fill="#57565c"/><path d="m400 64v416c0 8.84-5.609 16-12.533 16h-350.934c-6.924 0-12.533-7.16-12.533-16v-416z" fill="#83d8f4"/><path d="m48 112h336v176h-336z" fill="#ffda44"/><path d="m200 288h64 96l-80-135.14-49.16 83.04" fill="#91cc04"/><circle cx="120" cy="184" fill="#91cc04" r="40"/><path d="m264 288h-112l56-88z" fill="#4e901e"/><g><path d="m482.48 297.46-10.31 10.32-33.94-33.94 10.31-10.32a16 16 0 0 1 22.63 0l11.31 11.31a16 16 0 0 1 0 22.63z" fill="#e0e0e2"/><path d="m288.006 346.006h175.999v47.998h-175.999z" fill="#d80027" transform="matrix(.707 -.707 .707 .707 -151.504 374.248)"/><path d="m293.295 416.716h23.999v47.998h-23.999z" fill="#e0e0e2" transform="matrix(.707 -.707 .707 .707 -222.213 344.955)"/><path d="m313.78 466.17-1.01 1-39.59 5.65 5.65-39.59 1.01-1z" fill="#57565c"/><path d="m434.715 275.296h23.999v47.998h-23.999z" fill="#ffda44" transform="matrix(.707 -.707 .707 .707 -80.794 403.537)"/></g></g><path d="m48 416h64v32h-64z" fill="#91cc04"/><g><circle cx="55" cy="40" r="8"/><circle cx="80" cy="40" r="8"/><circle cx="104" cy="40" r="8"/><path d="m200 312h-152a8 8 0 0 0 0 16h152a8 8 0 0 0 0-16z"/><path d="m200 344h-152a8 8 0 0 0 0 16h152a8 8 0 0 0 0-16z"/><path d="m200 376h-152a8 8 0 0 0 0 16h152a8 8 0 0 0 0-16z"/><path d="m296 312h-64a8 8 0 0 0 0 16h64a8 8 0 0 0 0-16z"/><path d="m296 344h-64a8 8 0 0 0 0 16h64a8 8 0 0 0 0-16z"/><path d="m112 408h-64a8 8 0 0 0 -8 8v32a8 8 0 0 0 8 8h64a8 8 0 0 0 8-8v-32a8 8 0 0 0 -8-8zm-8 32h-48v-16h48z"/><path d="m200 408h-64a8 8 0 0 0 0 16h64a8 8 0 0 0 0-16z"/><path d="m248 376h-16a8 8 0 0 0 0 16h16a8 8 0 0 0 0-16z"/><path d="m272 392h8a8 8 0 0 0 0-16h-8a8 8 0 0 0 0 16z"/><path d="m488.14 269.18-11.32-11.32a24.04 24.04 0 0 0 -33.94 0l-26.88 26.88v-252.74a24.032 24.032 0 0 0 -24-24h-352a24.032 24.032 0 0 0 -24 24v448a24.032 24.032 0 0 0 24 24h352a24.032 24.032 0 0 0 24-24v-104c0-.24-.02-.47-.04-.71l72.18-72.17a24.04 24.04 0 0 0 0-33.94zm-456.14-237.18a8.011 8.011 0 0 1 8-8h352a8.011 8.011 0 0 1 8 8v24h-368zm368 448a8.011 8.011 0 0 1 -8 8h-352a8.011 8.011 0 0 1 -8-8v-408h368v228.74l-126.82 126.83a7.989 7.989 0 0 0 -2.27 4.52l-5.65 39.6a7.992 7.992 0 0 0 7.92 9.13 7.243 7.243 0 0 0 1.13-.08l39.6-5.65a7.989 7.989 0 0 0 4.52-2.27l81.57-81.56zm-109.85-46.77 5.65-5.66 22.63 22.63-5.66 5.65zm5.65 28.28-13.2 1.89 1.89-13.2zm33.95-22.63-22.63-22.63 113.13-113.13 22.63 22.63zm124.45-124.45-22.63-22.63 5.66-5.65 22.62 22.62zm22.62-22.63-5.65 5.66-22.63-22.63 5.66-5.65a8 8 0 0 1 11.31 0l11.31 11.31a8 8 0 0 1 0 11.31z"/><path d="m48 296h336a8 8 0 0 0 8-8v-176a8 8 0 0 0 -8-8h-336a8 8 0 0 0 -8 8v176a8 8 0 0 0 8 8zm72-112a8 8 0 0 0 -8 8v22.99a32 32 0 1 1 16 0v-22.99a8 8 0 0 0 -8-8zm46.57 96 41.43-65.1 15.96 25.08a1.3 1.3 0 0 0 .1.15l25.37 39.87zm101.82 0-28.16-44.26 39.77-67.18 65.97 111.44zm-212.39-160h320v160h-11.44l-77.68-131.21a7.987 7.987 0 0 0 -13.76 0l-42.52 71.82-15.85-24.9a8 8 0 0 0 -13.5 0l-53.64 84.29h-19.61v-48.68a48 48 0 1 0 -16 0v17.73l-11.56-7.71a8 8 0 0 0 -8.88 13.32l20.44 13.62v11.72h-56z"/><path d="m346.716 387.97a8 8 0 0 0 11.314 11.314l67.882-67.884a8 8 0 0 0 -11.312-11.312z"/></g></g></svg>