<svg width="32" height="40" viewBox="0 0 32 40" fill="none" xmlns="http://www.w3.org/2000/svg">
<path fill-rule="evenodd" clip-rule="evenodd" d="M4.66678 40H27.3335C28.5704 39.9988 29.757 39.5067 30.632 38.6317C31.5066 37.7566 31.9987 36.5704 31.9999 35.3336V4.66678C31.9987 3.42914 31.5062 2.24294 30.632 1.36834C29.757 0.493315 28.5704 0.0012447 27.3335 0H4.66678C3.42956 0.0012447 2.24336 0.493315 1.36834 1.36834C0.493315 2.24336 0.0012447 3.42955 0 4.66678V35.3336C0.0012447 36.5709 0.493315 37.7566 1.36834 38.6317C2.24336 39.5067 3.42956 39.9988 4.66678 40ZM2.31099 2.31062C2.93583 1.6862 3.78306 1.33436 4.66679 1.33353H27.3336C28.2173 1.33436 29.0645 1.68578 29.6898 2.31062C30.3142 2.93587 30.6656 3.7831 30.6668 4.66683V35.3337C30.666 36.217 30.3146 37.0646 29.6898 37.6895C29.0645 38.3139 28.2173 38.6657 27.3336 38.6666H4.66679C3.78306 38.6661 2.93583 38.3143 2.31099 37.6895C1.68616 37.0646 1.33432 36.217 1.33349 35.3337V4.66683C1.33432 3.78268 1.68616 2.93546 2.31099 2.31062Z" fill="#2F992F"/>
<path fill-rule="evenodd" clip-rule="evenodd" d="M14.0002 37.3333H18.0007C18.5305 37.3333 19.0396 37.1226 19.4147 36.7475C19.7897 36.3724 20.0005 35.8634 20.0005 35.3335V32.6666C20.0005 32.1363 19.7897 31.6272 19.4147 31.2526C19.0396 30.8775 18.5305 30.6667 18.0007 30.6667H14.0002C13.4696 30.6667 12.9609 30.8775 12.5858 31.2526C12.2108 31.6272 12 32.1363 12 32.6666V35.3335C12 35.8634 12.2108 36.3724 12.5858 36.7475C12.9613 37.1226 13.47 37.3333 14.0002 37.3333ZM13.5286 32.1954C13.6539 32.0705 13.8232 32 14 32H18.0004C18.1772 32 18.3464 32.0705 18.4717 32.1954C18.597 32.3207 18.6672 32.4904 18.6672 32.6671V35.3341C18.6672 35.5108 18.597 35.6801 18.4717 35.8054C18.3464 35.9307 18.1772 36.0008 18.0004 36.0008H14C13.8232 36.0008 13.6539 35.9307 13.5286 35.8054C13.4037 35.6801 13.3336 35.5108 13.3336 35.3341V32.6671C13.3336 32.4904 13.4037 32.3207 13.5286 32.1954Z" fill="#2F992F"/>
<path fill-rule="evenodd" clip-rule="evenodd" d="M4.66681 37.3333H8.66685C9.19709 37.3333 9.70575 37.123 10.0812 36.7475C10.4563 36.3724 10.6671 35.8634 10.6671 35.3335V32.6666C10.6671 32.1363 10.4563 31.6272 10.0812 31.2526C9.70575 30.8775 9.19709 30.6667 8.66685 30.6667H4.66681C4.13656 30.6667 3.6279 30.8775 3.25283 31.2526C2.87776 31.6272 2.66699 32.1363 2.66699 32.6666V35.3335C2.66699 35.8634 2.87776 36.3724 3.25283 36.7475C3.6279 37.1226 4.13656 37.3333 4.66681 37.3333ZM4.19564 32.1954C4.32094 32.0705 4.49022 32 4.66697 32H8.66701C8.84376 32 9.01345 32.0705 9.13834 32.1954C9.26363 32.3207 9.33375 32.4904 9.33375 32.6671V35.3341C9.33375 35.5108 9.26322 35.6801 9.13834 35.8054C9.01345 35.9307 8.84376 36.0008 8.66701 36.0008H4.66697C4.49022 36.0008 4.32094 35.9307 4.19564 35.8054C4.07076 35.6801 4.00064 35.5108 4.00064 35.3341V32.6671C4.00064 32.4904 4.07076 32.3207 4.19564 32.1954Z" fill="#2F992F"/>
<path fill-rule="evenodd" clip-rule="evenodd" d="M23.3333 37.3335H27.3338C27.864 37.3335 28.3731 37.1232 28.7482 36.7477C29.1228 36.3726 29.3336 35.864 29.3336 35.3337V24.6671C29.3336 24.1364 29.1228 23.6278 28.7482 23.2527C28.3731 22.8781 27.864 22.6669 27.3338 22.6669H23.3333C22.8035 22.6669 22.2944 22.8781 21.9193 23.2527C21.5443 23.6278 21.3335 24.1364 21.3335 24.6671V35.3337C21.3335 35.864 21.5443 36.3726 21.9193 36.7477C22.2944 37.1228 22.8035 37.3335 23.3333 37.3335ZM22.8616 24.1957C22.9869 24.0708 23.1562 24.0003 23.3329 24.0003V23.9999H27.3334C27.5106 23.9999 27.6798 24.0704 27.8047 24.1953C27.93 24.3202 28.0001 24.4899 28.0001 24.6671V35.3341C28.0001 35.5109 27.93 35.6801 27.8047 35.8054C27.6798 35.9307 27.5106 36.0008 27.3334 36.0008H23.3329C23.1562 36.0008 22.9869 35.9307 22.8616 35.8054C22.7363 35.6801 22.6666 35.5109 22.6666 35.3341V24.6675C22.6666 24.4903 22.7363 24.3206 22.8616 24.1957Z" fill="#2F992F"/>
<path fill-rule="evenodd" clip-rule="evenodd" d="M14.0002 29.3335H18.0007C18.5305 29.3335 19.0396 29.1227 19.4147 28.748C19.7897 28.373 20.0005 27.8639 20.0005 27.3337V24.6671C20.0005 24.1364 19.7897 23.6278 19.4147 23.2527C19.0396 22.8781 18.5305 22.6669 18.0007 22.6669H14.0002C13.4696 22.6669 12.9609 22.8781 12.5858 23.2527C12.2108 23.6278 12 24.1364 12 24.6671V27.3337C12 27.8639 12.2108 28.373 12.5858 28.748C12.9613 29.1227 13.47 29.3335 14.0002 29.3335ZM13.5286 24.1958C13.6539 24.0709 13.8232 24.0004 14 24.0004H18.0004C18.1772 24.0004 18.3464 24.0709 18.4717 24.1958C18.597 24.3207 18.6672 24.4904 18.6672 24.6675V27.3341C18.6672 27.5113 18.597 27.6805 18.4717 27.8054C18.3464 27.9307 18.1772 28.0008 18.0004 28.0008H14C13.8232 28.0008 13.6539 27.9307 13.5286 27.8054C13.4037 27.6805 13.3336 27.5113 13.3336 27.3341V24.6675C13.3336 24.4904 13.4037 24.3207 13.5286 24.1958Z" fill="#2F992F"/>
<path fill-rule="evenodd" clip-rule="evenodd" d="M4.66681 29.3335H8.66685C9.19709 29.3335 9.70575 29.1227 10.0812 28.748C10.4563 28.373 10.6671 27.8639 10.6671 27.3337V24.6671C10.6671 24.1364 10.4563 23.6278 10.0812 23.2527C9.70575 22.8781 9.19709 22.6669 8.66685 22.6669H4.66681C4.13656 22.6669 3.6279 22.8781 3.25283 23.2527C2.87776 23.6278 2.66699 24.1364 2.66699 24.6671V27.3337C2.66699 27.8639 2.87776 28.373 3.25283 28.748C3.6279 29.1227 4.13656 29.3335 4.66681 29.3335ZM4.19564 24.1958C4.32094 24.0709 4.49022 24.0004 4.66697 24.0004H8.66701C8.84376 24.0004 9.01304 24.0709 9.13834 24.1958C9.26363 24.3207 9.33375 24.4904 9.33375 24.6675V27.3341C9.33375 27.5113 9.26322 27.6805 9.13834 27.8054C9.01345 27.9307 8.84376 28.0008 8.66701 28.0008H4.66697C4.49022 28.0008 4.32094 27.9307 4.19564 27.8054C4.07076 27.6805 4.00064 27.5113 4.00064 27.3341V24.6675C4.00064 24.4904 4.07076 24.3207 4.19564 24.1958Z" fill="#2F992F"/>
<path fill-rule="evenodd" clip-rule="evenodd" d="M14.0002 21.3331H18.0007C18.5305 21.3331 19.0396 21.1223 19.4147 20.7468C19.7897 20.3722 20.0005 19.8635 20.0005 19.3329V16.6663C20.0005 16.1361 19.7897 15.6274 19.4147 15.2523C19.0396 14.8773 18.5305 14.6665 18.0007 14.6665H14.0002C13.4696 14.6665 12.9609 14.8773 12.5858 15.2523C12.2108 15.6274 12 16.1361 12 16.6663V19.3333C12 19.8639 12.2108 20.3726 12.5858 20.7473C12.9613 21.1223 13.47 21.3331 14.0002 21.3331ZM13.5286 16.1951C13.6539 16.0698 13.8232 15.9996 14 15.9996H18.0004C18.1772 15.9996 18.3464 16.0702 18.4717 16.1951C18.597 16.3203 18.6672 16.4896 18.6672 16.6664V19.3329C18.6672 19.5101 18.597 19.6794 18.4717 19.8047C18.3464 19.9296 18.1772 19.9997 18.0004 19.9997H14C13.8232 19.9997 13.6539 19.9296 13.5286 19.8047C13.4037 19.6794 13.3336 19.5097 13.3336 19.3329V16.6664C13.3336 16.4896 13.4037 16.3203 13.5286 16.1951Z" fill="#2F992F"/>
<path fill-rule="evenodd" clip-rule="evenodd" d="M4.66681 21.3331H8.66685C9.19709 21.3331 9.70575 21.1223 10.0812 20.7468C10.4563 20.3722 10.6671 19.8635 10.6671 19.3329V16.6663C10.6671 16.1361 10.4563 15.6274 10.0812 15.2523C9.70575 14.8773 9.19709 14.6665 8.66685 14.6665H4.66681C4.13656 14.6665 3.6279 14.8773 3.25283 15.2523C2.87776 15.6274 2.66699 16.1361 2.66699 16.6663V19.3333C2.66699 19.8639 2.87776 20.3726 3.25283 20.7473C3.6279 21.1223 4.13656 21.3331 4.66681 21.3331ZM4.19564 16.1951C4.32094 16.0698 4.49022 15.9996 4.66697 15.9996H8.66701C8.84376 15.9996 9.01345 16.0702 9.13834 16.1951C9.26363 16.3203 9.33375 16.4896 9.33375 16.6664V19.3329C9.33375 19.5101 9.26322 19.6794 9.13834 19.8047C9.01345 19.9296 8.84376 19.9997 8.66701 19.9997H4.66697C4.49022 19.9997 4.32094 19.9296 4.19564 19.8047C4.07076 19.6794 4.00064 19.5097 4.00064 19.3329V16.6664C4.00064 16.4896 4.07076 16.3203 4.19564 16.1951Z" fill="#2F992F"/>
<path fill-rule="evenodd" clip-rule="evenodd" d="M23.3333 21.3331H27.3338C27.864 21.3331 28.3731 21.1223 28.7482 20.7468C29.1228 20.3722 29.3336 19.8635 29.3336 19.3329V16.6663C29.3336 16.1361 29.1228 15.6274 28.7482 15.2523C28.3731 14.8773 27.864 14.6665 27.3338 14.6665H23.3333C22.8035 14.6665 22.2944 14.8773 21.9193 15.2523C21.5443 15.6274 21.3335 16.1361 21.3335 16.6663V19.3333C21.3335 19.8639 21.5443 20.3726 21.9193 20.7473C22.2944 21.1223 22.8035 21.3331 23.3333 21.3331ZM22.8616 16.1951C22.9869 16.0698 23.1562 15.9996 23.3329 15.9996H27.3334C27.5106 15.9996 27.6798 16.0702 27.8047 16.1951C27.93 16.3203 28.0001 16.4896 28.0001 16.6664V19.3329C28.0001 19.5101 27.93 19.6794 27.8047 19.8047C27.6798 19.9296 27.5106 19.9997 27.3334 19.9997H23.3329C23.1562 19.9997 22.9869 19.9296 22.8616 19.8047C22.7363 19.6794 22.6666 19.5097 22.6666 19.3329V16.6664C22.6666 16.4896 22.7363 16.3203 22.8616 16.1951Z" fill="#2F992F"/>
<path fill-rule="evenodd" clip-rule="evenodd" d="M4.66681 11.9999H27.3336C27.8638 11.9999 28.3729 11.7892 28.7475 11.4141C29.1226 11.039 29.3334 10.5304 29.3334 10.0001V4.66661C29.3334 4.13595 29.1226 3.62729 28.7475 3.25222C28.3729 2.87715 27.8638 2.66638 27.3336 2.66638H4.66681C4.13656 2.66638 3.6279 2.87715 3.25283 3.25222C2.87776 3.6277 2.66699 4.13637 2.66699 4.66661V10.0001C2.66699 10.5304 2.87776 11.039 3.25283 11.4141C3.6279 11.7892 4.13656 11.9999 4.66681 11.9999ZM4.19564 4.19533C4.32094 4.07003 4.49022 3.99991 4.66697 3.99991H27.3337C27.5105 3.99991 27.6802 4.07044 27.8051 4.19533C27.9304 4.32063 28.0005 4.4899 28.0005 4.66665V10.0002C28.0005 10.1769 27.9304 10.3466 27.8051 10.4715C27.6802 10.5968 27.5105 10.6669 27.3337 10.6669H4.66697C4.49022 10.6669 4.32094 10.5968 4.19564 10.4715C4.07076 10.3462 4.00064 10.1769 4.00064 10.0002V4.66665C4.00064 4.4899 4.07076 4.32063 4.19564 4.19533Z" fill="#2F992F"/>
<path fill-rule="evenodd" clip-rule="evenodd" d="M23.9193 9.41432C24.2944 9.78938 24.8035 10.0002 25.3333 10.0002C25.864 10.0002 26.3726 9.78938 26.7477 9.41432C27.1224 9.03925 27.3335 8.53058 27.3335 7.99993V6.66685C27.3335 6.1362 27.1224 5.62753 26.7477 5.25246C26.373 4.87739 25.864 4.66663 25.3333 4.66663C24.8035 4.66663 24.2944 4.87739 23.9193 5.25246C23.5443 5.62753 23.3335 6.13661 23.3335 6.66685V7.99993C23.3335 8.53058 23.5443 9.03925 23.9193 9.41432ZM24.8619 6.19512C24.9872 6.06982 25.1565 5.9997 25.3333 5.9997C25.51 5.9997 25.6801 6.07023 25.805 6.19512C25.9299 6.32 26.0004 6.4897 26.0004 6.66644V7.99951C26.0004 8.17626 25.9299 8.34554 25.805 8.47084C25.6801 8.59614 25.5104 8.66626 25.3333 8.66626C25.1565 8.66626 24.9872 8.59572 24.8619 8.47084C24.7366 8.34595 24.6669 8.17626 24.6669 7.99951V6.66644C24.6669 6.4897 24.7366 6.32042 24.8619 6.19512Z" fill="#2F992F"/>
</svg>
