<svg width="34" height="55" viewBox="0 0 34 55" fill="none" xmlns="http://www.w3.org/2000/svg">
<path d="M31.7677 22.7895L31.0433 22.595L31.0433 22.5951L31.7677 22.7895ZM21.965 1.76752L21.6483 2.44738L21.6483 2.4474L21.965 1.76752ZM30.3134 23.5642L30.0719 24.2742L30.0719 24.2743L30.3134 23.5642ZM29.6006 23.3217L29.8422 22.6117L29.8422 22.6117L29.6006 23.3217ZM28.8727 21.967L28.1477 21.7748L28.1477 21.7749L28.8727 21.967ZM20.7342 4.51392L20.4154 5.19279L20.4154 5.1928L20.7342 4.51392ZM20.1643 3.08546L20.8635 3.35694L20.8635 3.35683L20.1643 3.08546ZM20.4367 2.38357L19.7376 2.11214L19.7376 2.11221L20.4367 2.38357ZM23.2633 53.4108L22.6343 53.0023L22.6343 53.0024L23.2633 53.4108ZM21.3608 54.0474L21.1042 54.7522L21.1043 54.7522L21.3608 54.0474ZM2.74274 14.1209L3.44751 14.3775L3.44751 14.3775L2.74274 14.1209ZM4.45331 13.0728L4.36181 13.8172L4.36183 13.8172L4.45331 13.0728ZM11.5654 13.9469L11.6569 13.2025L11.6569 13.2025L11.5654 13.9469ZM12.9776 15.4562L12.2288 15.4979L12.2288 15.498L12.9776 15.4562ZM13.434 23.6238L12.6852 23.6656L12.6852 23.6658L13.434 23.6238ZM12.3575 25.2346L12.6053 25.9425L12.6057 25.9423L12.3575 25.2346ZM7.39476 26.9716L7.147 26.2637L6.59548 26.4567L6.64777 27.0387L7.39476 26.9716ZM14.5069 42.2235L13.9753 42.7526L14.3875 43.1668L14.8899 42.8684L14.5069 42.2235ZM19.0275 39.5382L18.6449 38.8932L18.6445 38.8934L19.0275 39.5382ZM20.9535 39.7489L21.4669 39.2021L21.4669 39.2021L20.9535 39.7489ZM26.9168 45.3488L26.4034 45.8955L26.4035 45.8956L26.9168 45.3488ZM27.1653 47.4007L27.7943 47.8091L27.7944 47.8091L27.1653 47.4007ZM19.8453 7.40699L20.187 6.73938L20.187 6.73934L19.8453 7.40699ZM26.087 20.7925L26.8181 20.9599L26.8181 20.9598L26.087 20.7925ZM18.2765 8.00367L18.9757 8.27492L18.9757 8.2749L18.2765 8.00367ZM18.0032 8.70819L17.3039 8.43694L17.3039 8.43704L18.0032 8.70819ZM18.5252 10.1126L18.8714 9.44724L18.8713 9.44717L18.5252 10.1126ZM23.1659 20.0646L23.8981 20.2272L23.8981 20.2271L23.1659 20.0646ZM23.9062 21.3672L23.6645 22.0772L23.6645 22.0772L23.9062 21.3672ZM24.6216 21.6107L24.8632 20.9007L24.8632 20.9007L24.6216 21.6107ZM20.3558 18.6788L21.1023 18.7514L21.1023 18.7514L20.3558 18.6788ZM17.7784 13.1516L18.2026 12.5331L18.2026 12.5331L17.7784 13.1516ZM18.8677 19.6397L19.1094 18.9297L19.1092 18.9296L18.8677 19.6397ZM18.1332 19.3899L17.8916 20.0999L17.8917 20.1L18.1332 19.3899ZM17.3702 18.2551L18.1192 18.2927L18.1193 18.2924L17.3702 18.2551ZM16.1838 15.711L16.6368 15.1132L16.6364 15.113L16.1838 15.711ZM15.805 14.3971L15.1058 14.1257L15.1058 14.1258L15.805 14.3971ZM16.0858 13.6738L16.785 13.9453L16.785 13.9451L16.0858 13.6738ZM32.492 22.984C34.8574 14.1729 30.5584 4.94243 22.2816 1.08764L21.6483 2.4474C29.2644 5.99449 33.2199 14.4872 31.0433 22.595L32.492 22.984ZM30.0719 24.2743C31.0979 24.6232 32.2101 24.0343 32.492 22.9839L31.0433 22.5951C30.9871 22.8044 30.7635 22.9251 30.5549 22.8541L30.0719 24.2743ZM29.3591 24.0317L30.0719 24.2742L30.555 22.8542L29.8422 22.6117L29.3591 24.0317ZM28.1477 21.7749C27.8945 22.7304 28.4273 23.7148 29.3591 24.0318L29.8422 22.6117C29.6527 22.5472 29.5475 22.3483 29.5976 22.1591L28.1477 21.7749ZM20.4154 5.1928C26.6624 8.12623 29.9175 15.0983 28.1477 21.7748L29.5976 22.1592C31.5533 14.7816 27.9558 7.07644 21.0529 3.83504L20.4154 5.1928ZM19.4652 2.81398C19.1088 3.73167 19.5207 4.77263 20.4154 5.19279L21.053 3.83505C20.8757 3.75181 20.791 3.54345 20.8635 3.35694L19.4652 2.81398ZM19.7376 2.11221L19.4651 2.8141L20.8635 3.35683L21.1359 2.65494L19.7376 2.11221ZM22.2817 1.08766C21.2958 0.628421 20.1298 1.1019 19.7376 2.11214L21.1359 2.655C21.2156 2.44959 21.4519 2.35588 21.6483 2.44738L22.2817 1.08766ZM22.9098 54.6733C23.1088 54.5805 23.3004 54.4422 23.4547 54.308C23.6091 54.1739 23.7728 54.0034 23.8924 53.8192L22.6343 53.0024C22.615 53.0321 22.559 53.0992 22.4706 53.176C22.3823 53.2528 22.3081 53.2989 22.2759 53.3139L22.9098 54.6733ZM21.1043 54.7522C21.3965 54.8586 21.7257 54.888 22.0142 54.8754C22.3027 54.8628 22.628 54.8048 22.9098 54.6733L22.2759 53.3139C22.2239 53.3381 22.1062 53.37 21.9487 53.3769C21.7912 53.3838 21.6712 53.3623 21.6173 53.3427L21.1043 54.7522ZM2.03797 13.8644C-3.98376 30.409 4.53485 48.7214 21.1042 54.7522L21.6173 53.3427C5.8271 47.5955 -2.29115 30.1443 3.44751 14.3775L2.03797 13.8644ZM4.54481 12.3284C3.46209 12.1953 2.41682 12.8236 2.03797 13.8644L3.44751 14.3775C3.58542 13.9986 3.96645 13.7686 4.36181 13.8172L4.54481 12.3284ZM11.6569 13.2025L4.5448 12.3284L4.36183 13.8172L11.4739 14.6913L11.6569 13.2025ZM13.5089 14.5482C13.3378 14.1813 13.0467 13.8746 12.7435 13.6543C12.4403 13.434 12.0586 13.2518 11.6569 13.2025L11.4739 14.6913C11.5614 14.702 11.7075 14.7556 11.8618 14.8678C12.0161 14.9799 12.1122 15.1022 12.1494 15.1821L13.5089 14.5482ZM13.7264 15.4144C13.7116 15.1481 13.6216 14.7899 13.5089 14.5482L12.1494 15.1821C12.1815 15.2509 12.2245 15.4222 12.2288 15.4979L13.7264 15.4144ZM14.1829 23.582L13.7264 15.4143L12.2288 15.498L12.6852 23.6656L14.1829 23.582ZM12.8232 25.8538C13.2588 25.6506 13.6028 25.2953 13.831 24.9141C14.0592 24.5329 14.2098 24.0618 14.1829 23.5818L12.6852 23.6658C12.692 23.7871 12.6516 23.9638 12.5439 24.1438C12.4362 24.3237 12.2995 24.4429 12.1893 24.4943L12.8232 25.8538ZM12.6057 25.9423C12.6709 25.9195 12.7604 25.883 12.8232 25.8538L12.1893 24.4943C12.1716 24.5025 12.128 24.5203 12.1093 24.5268L12.6057 25.9423ZM7.64253 27.6795L12.6053 25.9425L12.1098 24.5267L7.147 26.2637L7.64253 27.6795ZM15.0384 41.6944C11.1494 37.7873 8.64559 32.5121 8.14175 26.9045L6.64777 27.0387C7.1833 32.999 9.84184 38.5999 13.9753 42.7526L15.0384 41.6944ZM18.6445 38.8934L14.1238 41.5787L14.8899 42.8684L19.4106 40.183L18.6445 38.8934ZM18.8526 38.7835C18.7898 38.8128 18.7043 38.8579 18.6449 38.8932L19.4102 40.1833C19.4272 40.1732 19.4688 40.1512 19.4865 40.143L18.8526 38.7835ZM21.4669 39.2021C21.1165 38.8731 20.6588 38.6857 20.2201 38.6155C19.7815 38.5452 19.2881 38.5804 18.8526 38.7835L19.4865 40.143C19.5967 40.0916 19.7759 40.0634 19.983 40.0966C20.1901 40.1298 20.3515 40.2124 20.4401 40.2956L21.4669 39.2021ZM27.4303 44.802L21.4669 39.2021L20.4401 40.2956L26.4034 45.8955L27.4303 44.802ZM27.9539 45.5254C27.8412 45.2837 27.6246 44.9845 27.4302 44.802L26.4035 45.8956C26.4588 45.9475 26.5624 46.0906 26.5945 46.1593L27.9539 45.5254ZM27.7944 47.8091C28.0147 47.4697 28.1206 47.0602 28.1467 46.6863C28.1728 46.3125 28.125 45.8923 27.9539 45.5254L26.5945 46.1593C26.6317 46.2393 26.6636 46.3915 26.6504 46.5818C26.6371 46.772 26.5843 46.9184 26.5362 46.9923L27.7944 47.8091ZM23.8924 53.8192L27.7943 47.8091L26.5362 46.9923L22.6343 53.0023L23.8924 53.8192ZM19.5035 8.07459C24.0963 10.4257 26.5088 15.5876 25.3559 20.6252L26.8181 20.9598C28.1243 15.2523 25.3904 9.40305 20.187 6.73938L19.5035 8.07459ZM18.9757 8.2749C19.0569 8.06556 19.3022 7.97157 19.5036 8.07463L20.187 6.73934C19.1953 6.23183 17.9807 6.69231 17.5772 7.73243L18.9757 8.2749ZM18.7024 8.97944L18.9757 8.27492L17.5773 7.73241L17.3039 8.43694L18.7024 8.97944ZM18.8713 9.44717C18.7114 9.36403 18.6308 9.164 18.7024 8.97934L17.3039 8.43704C16.9623 9.31802 17.3248 10.3336 18.1792 10.778L18.8713 9.44717ZM23.8981 20.2271C24.8568 15.9076 22.7962 11.4893 18.8714 9.44724L18.1791 10.7779C21.5015 12.5065 23.2453 16.2457 22.4337 19.9021L23.8981 20.2271ZM24.1479 20.6572C23.9606 20.5935 23.859 20.4032 23.8981 20.2272L22.4338 19.902C22.225 20.842 22.77 21.7727 23.6645 22.0772L24.1479 20.6572ZM24.8632 20.9007L24.1478 20.6572L23.6645 22.0772L24.3799 22.3207L24.8632 20.9007ZM25.3559 20.6251C25.3055 20.8456 25.0758 20.9731 24.8632 20.9007L24.3799 22.3207C25.436 22.6802 26.5695 22.0458 26.8181 20.9599L25.3559 20.6251ZM21.1023 18.7514C21.3397 16.3076 20.2274 13.922 18.2026 12.5331L17.3541 13.77C18.9284 14.85 19.7939 16.7061 19.6093 18.6063L21.1023 18.7514ZM18.6261 20.3497C19.7745 20.7405 20.9851 19.957 21.1023 18.7514L19.6093 18.6063C19.5855 18.8509 19.3403 19.0083 19.1094 18.9297L18.6261 20.3497ZM17.8917 20.1L18.6263 20.3498L19.1092 18.9296L18.3746 18.6798L17.8917 20.1ZM16.6211 18.2176C16.5793 19.0514 17.0863 19.826 17.8916 20.0999L18.3747 18.6799C18.2186 18.6268 18.1102 18.4732 18.1192 18.2927L16.6211 18.2176ZM16.4126 17.1531C16.5348 17.4151 16.6355 17.9293 16.6211 18.2179L18.1193 18.2924C18.1458 17.7597 17.9974 17.0024 17.772 16.5191L16.4126 17.1531ZM15.7309 16.3088C15.9612 16.4833 16.2904 16.8909 16.4126 17.1531L17.772 16.5191C17.5467 16.0358 17.0619 15.4353 16.6368 15.1132L15.7309 16.3088ZM15.1058 14.1258C14.7981 14.9186 15.0653 15.8051 15.7312 16.3091L16.6364 15.113C16.4925 15.004 16.4445 14.8223 16.5042 14.6685L15.1058 14.1258ZM15.3867 13.4024L15.1058 14.1257L16.5042 14.6686L16.785 13.9453L15.3867 13.4024ZM18.2026 12.5331C17.2038 11.8479 15.8254 12.2717 15.3866 13.4025L16.785 13.9451C16.8733 13.7177 17.1515 13.631 17.3541 13.77L18.2026 12.5331Z" fill="#2F992F"/>
</svg>
