<svg width="42" height="42" viewBox="0 0 42 42" fill="none" xmlns="http://www.w3.org/2000/svg">
<path d="M36.3051 14.5372L35.7748 15.0675L36.3052 15.5979L36.8355 15.0675L36.3051 14.5372ZM39.9003 10.9412L39.37 10.4109L39.37 10.411L39.9003 10.9412ZM27.4616 5.6937L26.9313 5.16331L26.4008 5.69365L26.9312 6.22403L27.4616 5.6937ZM31.0568 2.09918L30.5266 1.56871L30.5266 1.5688L31.0568 2.09918ZM36.3653 2.09918L35.8349 2.62951V2.62951L36.3653 2.09918ZM39.9003 5.63427L40.4308 5.10409L40.4307 5.10394L39.9003 5.63427ZM9.55195 20.0662L9.0216 20.5965L9.55189 21.1268L10.0822 20.5966L9.55195 20.0662ZM20.0658 9.55393L20.5961 10.0843L21.1265 9.55397L20.5961 9.0236L20.0658 9.55393ZM1.72633 12.2398L2.25669 11.7095L2.25669 11.7095L1.72633 12.2398ZM1.72633 8.73516L1.196 8.20483L1.1958 8.20503L1.72633 8.73516ZM8.73478 1.72671L9.26511 2.25704V2.25704L8.73478 1.72671ZM12.2394 1.72671L12.7698 1.19646L12.7697 1.19635L12.2394 1.72671ZM14.8675 4.35559L15.3978 4.88592L15.9281 4.35567L15.3979 3.82534L14.8675 4.35559ZM10.0488 9.17422L10.5783 9.70547L10.5792 9.70455L10.0488 9.17422ZM10.0488 10.05L10.5792 9.51965L10.5791 9.51957L10.0488 10.05ZM10.9246 10.9257L11.4555 10.396L11.4549 10.3954L10.9246 10.9257ZM11.8004 10.9257L11.27 10.3954L11.2696 10.3958L11.8004 10.9257ZM16.619 6.10711L17.1493 5.57678L16.619 5.04645L16.0887 5.57678L16.619 6.10711ZM11.3408 39.5024L11.4703 40.2411L11.7037 40.2002L11.8712 40.0327L11.3408 39.5024ZM2.94644 40.9742L2.81692 40.2355L2.81655 40.2356L2.94644 40.9742ZM34.5372 16.3052L35.0676 16.8356L35.5979 16.3052L35.0675 15.7749L34.5372 16.3052ZM25.6936 7.46241L26.2239 6.93206L25.6936 6.40181L25.1633 6.93205L25.6936 7.46241ZM2.49098 30.6619L1.96068 30.1316L1.79295 30.2993L1.75215 30.5329L2.49098 30.6619ZM1.0254 39.0556L1.76422 39.1846L1.76422 39.1846L1.0254 39.0556ZM33.2653 40.2735L32.735 39.7431L32.735 39.7431L33.2653 40.2735ZM40.2738 33.2658L40.8041 33.7961L40.8041 33.7961L40.2738 33.2658ZM29.7607 40.2735L30.291 39.7431L30.291 39.7431L29.7607 40.2735ZM21.932 32.4455L21.4017 31.9151L20.8712 32.4455L21.4017 32.9758L21.932 32.4455ZM32.4458 21.9332L32.9761 21.4029L32.4458 20.8726L31.9155 21.4029L32.4458 21.9332ZM35.8942 25.3816L36.4246 25.9119L36.9549 25.3816L36.4246 24.8512L35.8942 25.3816ZM31.0755 30.2002L30.5452 29.6699L30.5452 29.6699L31.0755 30.2002ZM31.0755 31.076L30.5444 31.6055L30.5452 31.6063L31.0755 31.076ZM31.9513 31.9517L32.4825 31.4223L32.4816 31.4214L31.9513 31.9517ZM32.827 31.9517L32.2967 31.4214L32.2966 31.4215L32.827 31.9517ZM37.6458 27.1331L38.1761 26.6028L37.6458 26.0724L37.1154 26.6028L37.6458 27.1331ZM40.2738 29.7611L40.8041 29.2308L40.8041 29.2308L40.2738 29.7611ZM36.8355 15.0675L40.4307 11.4715L39.37 10.411L35.7748 14.0069L36.8355 15.0675ZM26.9312 6.22403L35.7748 15.0675L36.8355 14.0069L27.9919 5.16337L26.9312 6.22403ZM30.5266 1.5688L26.9313 5.16331L27.9918 6.22409L31.5871 2.62957L30.5266 1.5688ZM36.8956 1.56885C35.1371 -0.189694 32.2858 -0.189495 30.5266 1.56871L31.587 2.62965C32.7606 1.45671 34.6623 1.45691 35.8349 2.62951L36.8956 1.56885ZM40.4307 5.10394L36.8956 1.56885L35.8349 2.62951L39.37 6.1646L40.4307 5.10394ZM40.4307 11.4716C42.1894 9.71291 42.1881 6.8624 40.4308 5.10409L39.3699 6.16445C40.5422 7.33744 40.5426 9.23842 39.37 10.4109L40.4307 11.4716ZM10.0822 20.5966L20.5961 10.0843L19.5355 9.02356L9.02166 19.5358L10.0822 20.5966ZM1.19598 12.7701L9.0216 20.5965L10.0823 19.5359L2.25669 11.7095L1.19598 12.7701ZM1.1958 8.20503C-0.0637238 9.46555 -0.0650576 11.509 1.19598 12.7701L2.25669 11.7095C1.58188 11.0346 1.58208 9.94061 2.25687 9.26528L1.1958 8.20503ZM8.20445 1.19638L1.196 8.20483L2.25666 9.26549L9.26511 2.25704L8.20445 1.19638ZM12.7697 1.19635C11.5089 -0.0644212 9.46528 -0.064451 8.20445 1.19638L9.26511 2.25704C9.94013 1.58202 11.034 1.58199 11.7091 2.25706L12.7697 1.19635ZM15.3979 3.82534L12.7698 1.19646L11.709 2.25695L14.3371 4.88584L15.3979 3.82534ZM10.5792 9.70455L15.3978 4.88592L14.3371 3.82526L9.51852 8.64389L10.5792 9.70455ZM10.5791 9.51957C10.6294 9.56986 10.6306 9.65329 10.5783 9.70547L9.51944 8.64297C8.98262 9.17792 8.98383 10.0458 9.5186 10.5804L10.5791 9.51957ZM11.4549 10.3954L10.5792 9.51965L9.51851 10.5803L10.3943 11.4561L11.4549 10.3954ZM11.3624 10.3574C11.3958 10.3574 11.4147 10.3618 11.417 10.3623C11.4207 10.3632 11.4195 10.3631 11.4153 10.3614C11.4112 10.3597 11.4103 10.3588 11.4136 10.3609C11.4156 10.3621 11.432 10.3724 11.4555 10.396L10.3937 11.4555C10.5334 11.5955 10.7007 11.6889 10.8405 11.7469C10.9804 11.8049 11.1647 11.8574 11.3624 11.8574V10.3574ZM11.2696 10.3958C11.2931 10.3723 11.3094 10.3621 11.3114 10.3609C11.3147 10.3588 11.3138 10.3597 11.3096 10.3614C11.3054 10.3631 11.3042 10.3632 11.308 10.3623C11.3103 10.3618 11.3291 10.3574 11.3624 10.3574V11.8574C11.5603 11.8574 11.7445 11.805 11.8844 11.7469C12.0243 11.6889 12.1915 11.5955 12.3311 11.4557L11.2696 10.3958ZM16.0887 5.57678L11.27 10.3954L12.3307 11.4561L17.1493 6.63744L16.0887 5.57678ZM20.5961 9.0236L17.1493 5.57678L16.0887 6.63744L19.5355 10.0843L20.5961 9.0236ZM11.2113 38.7637L2.81692 40.2355L3.07597 41.713L11.4703 40.2411L11.2113 38.7637ZM34.0069 15.7749L10.8105 38.9721L11.8712 40.0327L35.0676 16.8356L34.0069 15.7749ZM25.1633 7.99276L34.0069 16.8356L35.0675 15.7749L26.2239 6.93206L25.1633 7.99276ZM3.02127 31.1923L26.2239 7.99278L25.1633 6.93205L1.96068 30.1316L3.02127 31.1923ZM1.76422 39.1846L3.2298 30.7909L1.75215 30.5329L0.286577 38.9266L1.76422 39.1846ZM2.81655 40.2356C2.19612 40.3447 1.65593 39.8047 1.76422 39.1846L0.286581 38.9265C-0.000474691 40.5703 1.43119 42.0022 3.07634 41.7129L2.81655 40.2356ZM33.7956 40.8038L40.8041 33.7961L39.7435 32.7354L32.735 39.7431L33.7956 40.8038ZM29.2304 40.8038C30.4913 42.0646 32.5348 42.0646 33.7957 40.8038L32.735 39.7431C32.06 40.4182 30.9661 40.4182 30.291 39.7431L29.2304 40.8038ZM21.4017 32.9758L29.2304 40.8038L30.291 39.7431L22.4623 31.9151L21.4017 32.9758ZM31.9155 21.4029L21.4017 31.9151L22.4622 32.9759L32.9761 22.4636L31.9155 21.4029ZM36.4246 24.8512L32.9761 21.4029L31.9155 22.4636L35.3639 25.9119L36.4246 24.8512ZM31.6059 30.7305L36.4246 25.9119L35.3639 24.8512L30.5452 29.6699L31.6059 30.7305ZM31.6067 30.5465C31.6566 30.5966 31.6578 30.6786 31.6059 30.7305L30.5452 29.6699C30.0105 30.2046 30.0117 31.0711 30.5444 31.6055L31.6067 30.5465ZM32.4816 31.4214L31.6059 30.5456L30.5452 31.6063L31.421 32.4821L32.4816 31.4214ZM32.2966 31.4215C32.3469 31.3712 32.4304 31.37 32.4825 31.4223L31.42 32.4811C31.955 33.0179 32.8229 33.0167 33.3575 32.482L32.2966 31.4215ZM37.1154 26.6028L32.2967 31.4214L33.3574 32.4821L38.1761 27.6634L37.1154 26.6028ZM40.8041 29.2308L38.1761 26.6028L37.1154 27.6634L39.7435 30.2915L40.8041 29.2308ZM40.8041 33.7961C42.065 32.5353 42.0649 30.4917 40.8041 29.2308L39.7434 30.2914C40.4185 30.9666 40.4185 32.0604 39.7435 32.7355L40.8041 33.7961Z" fill="#2F992F"/>
</svg>
